<?xml version="1.0" encoding="UTF-8" standalone="no"?>
<!DOCTYPE svg PUBLIC "-//W3C//DTD SVG 1.1//EN"
 "http://www.w3.org/Graphics/SVG/1.1/DTD/svg11.dtd">
<!-- Generated by graphviz version 8.1.0 (20230707.0739)
 -->
<!-- Pages: 1 -->
<svg width="1303pt" height="404pt"
 viewBox="0.00 0.00 1303.25 404.00" xmlns="http://www.w3.org/2000/svg" xmlns:xlink="http://www.w3.org/1999/xlink">
<g id="graph0" class="graph" transform="scale(1 1) rotate(0) translate(4 400)">
<polygon fill="white" stroke="none" points="-4,4 -4,-400 1299.25,-400 1299.25,4 -4,4"/>
<!-- denovo_assembly -->
<g id="node1" class="node">
<title>denovo_assembly</title>
<polygon fill="lemonchiffon" stroke="black" stroke-width="2" points="480.12,-396 477.12,-400 456.12,-400 453.12,-396 366.62,-396 366.62,-360 480.12,-360 480.12,-396"/>
<text text-anchor="start" x="374.62" y="-372.95" font-family="Times,serif" font-size="14.00">denovo_assembly</text>
</g>
<!-- denovo_assemblyresults -->
<g id="node2" class="node">
<title>denovo_assemblyresults</title>
<polygon fill="lemonchiffon" stroke="black" stroke-width="2" points="290.38,-324 287.38,-328 266.38,-328 263.38,-324 236.38,-324 236.38,-288 290.38,-288 290.38,-324"/>
<text text-anchor="start" x="244.38" y="-300.95" font-family="Times,serif" font-size="14.00">results</text>
</g>
<!-- denovo_assembly&#45;&gt;denovo_assemblyresults -->
<g id="edge1" class="edge">
<title>denovo_assembly&#45;&gt;denovo_assemblyresults</title>
<path fill="none" stroke="black" d="M383.41,-359.52C358.03,-348.41 325.4,-334.14 300.57,-323.27"/>
<polygon fill="black" stroke="black" points="302.36,-319.8 291.79,-319 299.55,-326.21 302.36,-319.8"/>
</g>
<!-- denovo_assemblydata -->
<g id="node3" class="node">
<title>denovo_assemblydata</title>
<polygon fill="lemonchiffon" stroke="black" stroke-width="2" points="611.38,-324 608.38,-328 587.38,-328 584.38,-324 557.38,-324 557.38,-288 611.38,-288 611.38,-324"/>
<text text-anchor="start" x="565.38" y="-300.95" font-family="Times,serif" font-size="14.00">data</text>
</g>
<!-- denovo_assembly&#45;&gt;denovo_assemblydata -->
<g id="edge2" class="edge">
<title>denovo_assembly&#45;&gt;denovo_assemblydata</title>
<path fill="none" stroke="black" d="M463.59,-359.52C489.29,-348.34 522.38,-333.95 547.42,-323.07"/>
<polygon fill="black" stroke="black" points="548.5,-325.98 556.28,-318.78 545.71,-319.56 548.5,-325.98"/>
</g>
<!-- denovo_assemblyresultsscaffolds -->
<g id="node4" class="node">
<title>denovo_assemblyresultsscaffolds</title>
<polygon fill="lemonchiffon" stroke="black" stroke-width="2" points="64.75,-252 61.75,-256 40.75,-256 37.75,-252 0,-252 0,-216 64.75,-216 64.75,-252"/>
<text text-anchor="start" x="8" y="-228.95" font-family="Times,serif" font-size="14.00">scaffolds</text>
</g>
<!-- denovo_assemblyresults&#45;&gt;denovo_assemblyresultsscaffolds -->
<g id="edge3" class="edge">
<title>denovo_assemblyresults&#45;&gt;denovo_assemblyresultsscaffolds</title>
<path fill="none" stroke="black" d="M236.15,-297.41C191.62,-284.98 105.62,-261 75.4,-251.88"/>
<polygon fill="black" stroke="black" points="76.67,-248.29 66.08,-248.56 74.53,-254.95 76.67,-248.29"/>
</g>
<!-- denovo_assemblyresultssam -->
<g id="node5" class="node">
<title>denovo_assemblyresultssam</title>
<polygon fill="lemonchiffon" stroke="black" stroke-width="2" points="136.38,-252 133.38,-256 112.38,-256 109.38,-252 82.38,-252 82.38,-216 136.38,-216 136.38,-252"/>
<text text-anchor="start" x="90.38" y="-228.95" font-family="Times,serif" font-size="14.00">sam</text>
</g>
<!-- denovo_assemblyresults&#45;&gt;denovo_assemblyresultssam -->
<g id="edge4" class="edge">
<title>denovo_assemblyresults&#45;&gt;denovo_assemblyresultssam</title>
<path fill="none" stroke="black" d="M236.01,-292.71C207.96,-280.11 166.36,-261.43 146.65,-252.47"/>
<polygon fill="black" stroke="black" points="148.21,-248.87 137.66,-247.88 145.29,-255.24 148.21,-248.87"/>
</g>
<!-- denovo_assemblyresultsbam -->
<g id="node6" class="node">
<title>denovo_assemblyresultsbam</title>
<polygon fill="lemonchiffon" stroke="black" stroke-width="2" points="208.38,-252 205.38,-256 184.38,-256 181.38,-252 154.38,-252 154.38,-216 208.38,-216 208.38,-252"/>
<text text-anchor="start" x="162.38" y="-228.95" font-family="Times,serif" font-size="14.00">bam</text>
</g>
<!-- denovo_assemblyresults&#45;&gt;denovo_assemblyresultsbam -->
<g id="edge5" class="edge">
<title>denovo_assemblyresults&#45;&gt;denovo_assemblyresultsbam</title>
<path fill="none" stroke="black" d="M243.11,-287.7C233.05,-279.11 220.74,-268.61 209.77,-259.24"/>
<polygon fill="black" stroke="black" points="212.57,-256.18 202.7,-252.35 208.03,-261.5 212.57,-256.18"/>
</g>
<!-- denovo_assemblyresultsannotation -->
<g id="node7" class="node">
<title>denovo_assemblyresultsannotation</title>
<polygon fill="lemonchiffon" stroke="black" stroke-width="2" points="299.88,-252 296.88,-256 275.88,-256 272.88,-252 226.88,-252 226.88,-216 299.88,-216 299.88,-252"/>
<text text-anchor="start" x="234.88" y="-228.95" font-family="Times,serif" font-size="14.00">annotation</text>
</g>
<!-- denovo_assemblyresults&#45;&gt;denovo_assemblyresultsannotation -->
<g id="edge6" class="edge">
<title>denovo_assemblyresults&#45;&gt;denovo_assemblyresultsannotation</title>
<path fill="none" stroke="black" d="M263.38,-287.7C263.38,-280.24 263.38,-271.32 263.38,-262.97"/>
<polygon fill="black" stroke="black" points="266.88,-263.1 263.38,-253.1 259.88,-263.1 266.88,-263.1"/>
</g>
<!-- denovo_assemblyresultsref_genomes -->
<g id="node8" class="node">
<title>denovo_assemblyresultsref_genomes</title>
<polygon fill="lemonchiffon" stroke="black" stroke-width="2" points="404.62,-252 401.62,-256 380.62,-256 377.62,-252 318.12,-252 318.12,-216 404.62,-216 404.62,-252"/>
<text text-anchor="start" x="326.12" y="-228.95" font-family="Times,serif" font-size="14.00">ref_genomes</text>
</g>
<!-- denovo_assemblyresults&#45;&gt;denovo_assemblyresultsref_genomes -->
<g id="edge7" class="edge">
<title>denovo_assemblyresults&#45;&gt;denovo_assemblyresultsref_genomes</title>
<path fill="none" stroke="black" d="M287.85,-287.52C300.1,-278.76 315.11,-268.04 328.37,-258.58"/>
<polygon fill="black" stroke="black" points="330.11,-260.92 336.21,-252.26 326.04,-255.22 330.11,-260.92"/>
</g>
<!-- denovo_assemblyresultsprokka_output -->
<g id="node9" class="node">
<title>denovo_assemblyresultsprokka_output</title>
<polygon fill="lemonchiffon" stroke="black" stroke-width="2" points="517.75,-252 514.75,-256 493.75,-256 490.75,-252 423,-252 423,-216 517.75,-216 517.75,-252"/>
<text text-anchor="start" x="431" y="-228.95" font-family="Times,serif" font-size="14.00">prokka_output</text>
</g>
<!-- denovo_assemblyresults&#45;&gt;denovo_assemblyresultsprokka_output -->
<g id="edge8" class="edge">
<title>denovo_assemblyresults&#45;&gt;denovo_assemblyresultsprokka_output</title>
<path fill="none" stroke="black" d="M290.86,-295.7C321.65,-285.29 372.45,-268.11 412.16,-254.69"/>
<polygon fill="black" stroke="black" points="413.17,-257.7 421.52,-251.18 410.93,-251.07 413.17,-257.7"/>
</g>
<!-- denovo_assemblydatatrimmed_fastq -->
<g id="node10" class="node">
<title>denovo_assemblydatatrimmed_fastq</title>
<polygon fill="lemonchiffon" stroke="black" stroke-width="2" points="632.5,-252 629.5,-256 608.5,-256 605.5,-252 536.25,-252 536.25,-216 632.5,-216 632.5,-252"/>
<text text-anchor="start" x="544.25" y="-228.95" font-family="Times,serif" font-size="14.00">trimmed_fastq</text>
</g>
<!-- denovo_assemblydata&#45;&gt;denovo_assemblydatatrimmed_fastq -->
<g id="edge9" class="edge">
<title>denovo_assemblydata&#45;&gt;denovo_assemblydatatrimmed_fastq</title>
<path fill="none" stroke="black" d="M584.38,-287.7C584.38,-280.24 584.38,-271.32 584.38,-262.97"/>
<polygon fill="black" stroke="black" points="587.88,-263.1 584.38,-253.1 580.88,-263.1 587.88,-263.1"/>
</g>
<!-- denovo_assemblydatauntrimmed_fastq -->
<g id="node11" class="node">
<title>denovo_assemblydatauntrimmed_fastq</title>
<polygon fill="lemonchiffon" stroke="black" stroke-width="2" points="760.25,-252 757.25,-256 736.25,-256 733.25,-252 650.5,-252 650.5,-216 760.25,-216 760.25,-252"/>
<text text-anchor="start" x="658.5" y="-228.95" font-family="Times,serif" font-size="14.00">untrimmed_fastq</text>
</g>
<!-- denovo_assemblydata&#45;&gt;denovo_assemblydatauntrimmed_fastq -->
<g id="edge10" class="edge">
<title>denovo_assemblydata&#45;&gt;denovo_assemblydatauntrimmed_fastq</title>
<path fill="none" stroke="black" d="M611.83,-289.12C627.83,-279.86 648.29,-268.03 665.98,-257.79"/>
<polygon fill="black" stroke="black" points="667.58,-260.33 674.48,-252.29 664.08,-254.27 667.58,-260.33"/>
</g>
<!-- denovo_assemblydatatrimmed_fastqspades_output -->
<g id="node12" class="node">
<title>denovo_assemblydatatrimmed_fastqspades_output</title>
<polygon fill="lemonchiffon" stroke="black" stroke-width="2" points="631,-180 628,-184 607,-184 604,-180 537.75,-180 537.75,-144 631,-144 631,-180"/>
<text text-anchor="start" x="545.75" y="-156.95" font-family="Times,serif" font-size="14.00">spades_output</text>
</g>
<!-- denovo_assemblydatatrimmed_fastq&#45;&gt;denovo_assemblydatatrimmed_fastqspades_output -->
<g id="edge11" class="edge">
<title>denovo_assemblydatatrimmed_fastq&#45;&gt;denovo_assemblydatatrimmed_fastqspades_output</title>
<path fill="none" stroke="black" d="M584.38,-215.7C584.38,-208.24 584.38,-199.32 584.38,-190.97"/>
<polygon fill="black" stroke="black" points="587.88,-191.1 584.38,-181.1 580.88,-191.1 587.88,-191.1"/>
</g>
<!-- denovo_assemblydatatrimmed_fastqspades_outputmisc -->
<g id="node13" class="node">
<title>denovo_assemblydatatrimmed_fastqspades_outputmisc</title>
<polygon fill="lemonchiffon" stroke="black" stroke-width="2" points="232.38,-108 229.38,-112 208.38,-112 205.38,-108 178.38,-108 178.38,-72 232.38,-72 232.38,-108"/>
<text text-anchor="start" x="186.38" y="-84.95" font-family="Times,serif" font-size="14.00">misc</text>
</g>
<!-- denovo_assemblydatatrimmed_fastqspades_output&#45;&gt;denovo_assemblydatatrimmed_fastqspades_outputmisc -->
<g id="edge12" class="edge">
<title>denovo_assemblydatatrimmed_fastqspades_output&#45;&gt;denovo_assemblydatatrimmed_fastqspades_outputmisc</title>
<path fill="none" stroke="black" d="M537.4,-153.74C454.47,-140.93 287.25,-115.09 243.21,-106.38"/>
<polygon fill="black" stroke="black" points="244.2,-102.78 233.66,-103.88 242.59,-109.59 244.2,-102.78"/>
</g>
<!-- denovo_assemblydatatrimmed_fastqspades_outputK127 -->
<g id="node14" class="node">
<title>denovo_assemblydatatrimmed_fastqspades_outputK127</title>
<polygon fill="lemonchiffon" stroke="black" stroke-width="2" points="304.38,-108 301.38,-112 280.38,-112 277.38,-108 250.38,-108 250.38,-72 304.38,-72 304.38,-108"/>
<text text-anchor="start" x="258.38" y="-84.95" font-family="Times,serif" font-size="14.00">K127</text>
</g>
<!-- denovo_assemblydatatrimmed_fastqspades_output&#45;&gt;denovo_assemblydatatrimmed_fastqspades_outputK127 -->
<g id="edge13" class="edge">
<title>denovo_assemblydatatrimmed_fastqspades_output&#45;&gt;denovo_assemblydatatrimmed_fastqspades_outputK127</title>
<path fill="none" stroke="black" d="M537.3,-150.34C468.97,-134.86 350.38,-108 350.38,-108 350.38,-108 333.02,-103.96 315.24,-99.82"/>
<polygon fill="black" stroke="black" points="316.09,-96.19 305.56,-97.33 314.5,-103.01 316.09,-96.19"/>
</g>
<!-- denovo_assemblydatatrimmed_fastqspades_outputpipeline_state -->
<g id="node15" class="node">
<title>denovo_assemblydatatrimmed_fastqspades_outputpipeline_state</title>
<polygon fill="lemonchiffon" stroke="black" stroke-width="2" points="450.88,-108 447.88,-112 426.88,-112 423.88,-108 359.88,-108 359.88,-72 450.88,-72 450.88,-108"/>
<text text-anchor="start" x="367.88" y="-84.95" font-family="Times,serif" font-size="14.00">pipeline_state</text>
</g>
<!-- denovo_assemblydatatrimmed_fastqspades_output&#45;&gt;denovo_assemblydatatrimmed_fastqspades_outputpipeline_state -->
<g id="edge14" class="edge">
<title>denovo_assemblydatatrimmed_fastqspades_output&#45;&gt;denovo_assemblydatatrimmed_fastqspades_outputpipeline_state</title>
<path fill="none" stroke="black" d="M539.67,-143.52C515.44,-134.04 485.32,-122.26 459.74,-112.26"/>
<polygon fill="black" stroke="black" points="461.41,-108.76 450.82,-108.38 458.86,-115.28 461.41,-108.76"/>
</g>
<!-- denovo_assemblydatatrimmed_fastqspades_outputK33 -->
<g id="node16" class="node">
<title>denovo_assemblydatatrimmed_fastqspades_outputK33</title>
<polygon fill="lemonchiffon" stroke="black" stroke-width="2" points="523.38,-108 520.38,-112 499.38,-112 496.38,-108 469.38,-108 469.38,-72 523.38,-72 523.38,-108"/>
<text text-anchor="start" x="477.38" y="-84.95" font-family="Times,serif" font-size="14.00">K33</text>
</g>
<!-- denovo_assemblydatatrimmed_fastqspades_output&#45;&gt;denovo_assemblydatatrimmed_fastqspades_outputK33 -->
<g id="edge15" class="edge">
<title>denovo_assemblydatatrimmed_fastqspades_output&#45;&gt;denovo_assemblydatatrimmed_fastqspades_outputK33</title>
<path fill="none" stroke="black" d="M562.62,-143.7C551.73,-135.03 538.36,-124.4 526.5,-114.96"/>
<polygon fill="black" stroke="black" points="529.19,-111.83 519.18,-108.35 524.83,-117.31 529.19,-111.83"/>
</g>
<!-- denovo_assemblydatatrimmed_fastqspades_outputK21 -->
<g id="node17" class="node">
<title>denovo_assemblydatatrimmed_fastqspades_outputK21</title>
<polygon fill="lemonchiffon" stroke="black" stroke-width="2" points="611.38,-108 608.38,-112 587.38,-112 584.38,-108 557.38,-108 557.38,-72 611.38,-72 611.38,-108"/>
<text text-anchor="start" x="565.38" y="-84.95" font-family="Times,serif" font-size="14.00">K21</text>
</g>
<!-- denovo_assemblydatatrimmed_fastqspades_output&#45;&gt;denovo_assemblydatatrimmed_fastqspades_outputK21 -->
<g id="edge16" class="edge">
<title>denovo_assemblydatatrimmed_fastqspades_output&#45;&gt;denovo_assemblydatatrimmed_fastqspades_outputK21</title>
<path fill="none" stroke="black" d="M584.38,-143.7C584.38,-136.24 584.38,-127.32 584.38,-118.97"/>
<polygon fill="black" stroke="black" points="587.88,-119.1 584.38,-109.1 580.88,-119.1 587.88,-119.1"/>
</g>
<!-- denovo_assemblydatatrimmed_fastqspades_outputK99 -->
<g id="node18" class="node">
<title>denovo_assemblydatatrimmed_fastqspades_outputK99</title>
<polygon fill="lemonchiffon" stroke="black" stroke-width="2" points="769.38,-108 766.38,-112 745.38,-112 742.38,-108 715.38,-108 715.38,-72 769.38,-72 769.38,-108"/>
<text text-anchor="start" x="723.38" y="-84.95" font-family="Times,serif" font-size="14.00">K99</text>
</g>
<!-- denovo_assemblydatatrimmed_fastqspades_output&#45;&gt;denovo_assemblydatatrimmed_fastqspades_outputK99 -->
<g id="edge17" class="edge">
<title>denovo_assemblydatatrimmed_fastqspades_output&#45;&gt;denovo_assemblydatatrimmed_fastqspades_outputK99</title>
<path fill="none" stroke="black" d="M623.84,-143.52C648.79,-132.46 680.83,-118.26 705.31,-107.42"/>
<polygon fill="black" stroke="black" points="706.57,-110.25 714.3,-103 703.74,-103.85 706.57,-110.25"/>
</g>
<!-- denovo_assemblydatatrimmed_fastqspades_outputK55 -->
<g id="node19" class="node">
<title>denovo_assemblydatatrimmed_fastqspades_outputK55</title>
<polygon fill="lemonchiffon" stroke="black" stroke-width="2" points="979.38,-108 976.38,-112 955.38,-112 952.38,-108 925.38,-108 925.38,-72 979.38,-72 979.38,-108"/>
<text text-anchor="start" x="933.38" y="-84.95" font-family="Times,serif" font-size="14.00">K55</text>
</g>
<!-- denovo_assemblydatatrimmed_fastqspades_output&#45;&gt;denovo_assemblydatatrimmed_fastqspades_outputK55 -->
<g id="edge18" class="edge">
<title>denovo_assemblydatatrimmed_fastqspades_output&#45;&gt;denovo_assemblydatatrimmed_fastqspades_outputK55</title>
<path fill="none" stroke="black" d="M631.36,-152.06C705.14,-138.03 846.75,-111.09 914.48,-98.21"/>
<polygon fill="black" stroke="black" points="914.91,-101.5 924.08,-96.19 913.6,-94.62 914.91,-101.5"/>
</g>
<!-- denovo_assemblydatatrimmed_fastqspades_outputK77 -->
<g id="node20" class="node">
<title>denovo_assemblydatatrimmed_fastqspades_outputK77</title>
<polygon fill="lemonchiffon" stroke="black" stroke-width="2" points="1120.38,-108 1117.38,-112 1096.38,-112 1093.38,-108 1066.38,-108 1066.38,-72 1120.38,-72 1120.38,-108"/>
<text text-anchor="start" x="1074.38" y="-84.95" font-family="Times,serif" font-size="14.00">K77</text>
</g>
<!-- denovo_assemblydatatrimmed_fastqspades_output&#45;&gt;denovo_assemblydatatrimmed_fastqspades_outputK77 -->
<g id="edge19" class="edge">
<title>denovo_assemblydatatrimmed_fastqspades_output&#45;&gt;denovo_assemblydatatrimmed_fastqspades_outputK77</title>
<path fill="none" stroke="black" d="M631.11,-154.87C737.46,-140.92 988.38,-108 988.38,-108 988.38,-108 1025.32,-102.02 1055.38,-97.15"/>
<polygon fill="black" stroke="black" points="1055.75,-100.48 1065.06,-95.42 1054.63,-93.57 1055.75,-100.48"/>
</g>
<!-- denovo_assemblydatatrimmed_fastqspades_outputtmp -->
<g id="node21" class="node">
<title>denovo_assemblydatatrimmed_fastqspades_outputtmp</title>
<polygon fill="lemonchiffon" stroke="black" stroke-width="2" points="1192.38,-108 1189.38,-112 1168.38,-112 1165.38,-108 1138.38,-108 1138.38,-72 1192.38,-72 1192.38,-108"/>
<text text-anchor="start" x="1146.38" y="-84.95" font-family="Times,serif" font-size="14.00">tmp</text>
</g>
<!-- denovo_assemblydatatrimmed_fastqspades_output&#45;&gt;denovo_assemblydatatrimmed_fastqspades_outputtmp -->
<g id="edge20" class="edge">
<title>denovo_assemblydatatrimmed_fastqspades_output&#45;&gt;denovo_assemblydatatrimmed_fastqspades_outputtmp</title>
<path fill="none" stroke="black" d="M631.31,-156.44C751.63,-144.73 1065.52,-114.21 1127.52,-105.72"/>
<polygon fill="black" stroke="black" points="1127.83,-109.04 1137.09,-103.88 1126.64,-102.14 1127.83,-109.04"/>
</g>
<!-- denovo_assemblydatatrimmed_fastqspades_outputK127configs -->
<g id="node22" class="node">
<title>denovo_assemblydatatrimmed_fastqspades_outputK127configs</title>
<polygon fill="lemonchiffon" stroke="black" stroke-width="2" points="145.25,-36 142.25,-40 121.25,-40 118.25,-36 89.5,-36 89.5,0 145.25,0 145.25,-36"/>
<text text-anchor="start" x="97.5" y="-12.95" font-family="Times,serif" font-size="14.00">configs</text>
</g>
<!-- denovo_assemblydatatrimmed_fastqspades_outputK127&#45;&gt;denovo_assemblydatatrimmed_fastqspades_outputK127configs -->
<g id="edge21" class="edge">
<title>denovo_assemblydatatrimmed_fastqspades_outputK127&#45;&gt;denovo_assemblydatatrimmed_fastqspades_outputK127configs</title>
<path fill="none" stroke="black" d="M250.09,-76.12C245.07,-73.74 241.38,-72 241.38,-72 241.38,-72 180.58,-46.84 155.4,-36.19"/>
<polygon fill="black" stroke="black" points="156.99,-32.63 146.42,-31.88 154.22,-39.06 156.99,-32.63"/>
</g>
<!-- denovo_assemblydatatrimmed_fastqspades_outputK127path_extend -->
<g id="node23" class="node">
<title>denovo_assemblydatatrimmed_fastqspades_outputK127path_extend</title>
<polygon fill="lemonchiffon" stroke="black" stroke-width="2" points="245.38,-36 242.38,-40 221.38,-40 218.38,-36 163.38,-36 163.38,0 245.38,0 245.38,-36"/>
<text text-anchor="start" x="171.38" y="-12.95" font-family="Times,serif" font-size="14.00">path_extend</text>
</g>
<!-- denovo_assemblydatatrimmed_fastqspades_outputK127&#45;&gt;denovo_assemblydatatrimmed_fastqspades_outputK127path_extend -->
<g id="edge22" class="edge">
<title>denovo_assemblydatatrimmed_fastqspades_outputK127&#45;&gt;denovo_assemblydatatrimmed_fastqspades_outputK127path_extend</title>
<path fill="none" stroke="black" d="M259.33,-71.7C250.56,-63.28 239.85,-53.02 230.23,-43.79"/>
<polygon fill="black" stroke="black" points="233.11,-41.74 223.47,-37.35 228.26,-46.79 233.11,-41.74"/>
</g>
<!-- denovo_assemblydatatrimmed_fastqspades_outputK33simplified_contigs -->
<g id="node24" class="node">
<title>denovo_assemblydatatrimmed_fastqspades_outputK33simplified_contigs</title>
<polygon fill="lemonchiffon" stroke="black" stroke-width="2" points="381,-36 378,-40 357,-40 354,-36 263.75,-36 263.75,0 381,0 381,-36"/>
<text text-anchor="start" x="271.75" y="-12.95" font-family="Times,serif" font-size="14.00">simplified_contigs</text>
</g>
<!-- denovo_assemblydatatrimmed_fastqspades_outputK33&#45;&gt;denovo_assemblydatatrimmed_fastqspades_outputK33simplified_contigs -->
<g id="edge23" class="edge">
<title>denovo_assemblydatatrimmed_fastqspades_outputK33&#45;&gt;denovo_assemblydatatrimmed_fastqspades_outputK33simplified_contigs</title>
<path fill="none" stroke="black" d="M469.1,-76.47C463.55,-73.92 459.38,-72 459.38,-72 459.38,-72 415.4,-54.99 377.28,-40.24"/>
<polygon fill="black" stroke="black" points="378.82,-36.7 368.23,-36.35 376.3,-43.23 378.82,-36.7"/>
</g>
<!-- denovo_assemblydatatrimmed_fastqspades_outputK33configs -->
<g id="node25" class="node">
<title>denovo_assemblydatatrimmed_fastqspades_outputK33configs</title>
<polygon fill="lemonchiffon" stroke="black" stroke-width="2" points="455.25,-36 452.25,-40 431.25,-40 428.25,-36 399.5,-36 399.5,0 455.25,0 455.25,-36"/>
<text text-anchor="start" x="407.5" y="-12.95" font-family="Times,serif" font-size="14.00">configs</text>
</g>
<!-- denovo_assemblydatatrimmed_fastqspades_outputK33&#45;&gt;denovo_assemblydatatrimmed_fastqspades_outputK33configs -->
<g id="edge24" class="edge">
<title>denovo_assemblydatatrimmed_fastqspades_outputK33&#45;&gt;denovo_assemblydatatrimmed_fastqspades_outputK33configs</title>
<path fill="none" stroke="black" d="M479.32,-71.7C471.05,-63.3 460.96,-53.07 451.88,-43.86"/>
<polygon fill="black" stroke="black" points="454.75,-41.77 445.23,-37.1 449.76,-46.68 454.75,-41.77"/>
</g>
<!-- denovo_assemblydatatrimmed_fastqspades_outputK21simplified_contigs -->
<g id="node26" class="node">
<title>denovo_assemblydatatrimmed_fastqspades_outputK21simplified_contigs</title>
<polygon fill="lemonchiffon" stroke="black" stroke-width="2" points="591,-36 588,-40 567,-40 564,-36 473.75,-36 473.75,0 591,0 591,-36"/>
<text text-anchor="start" x="481.75" y="-12.95" font-family="Times,serif" font-size="14.00">simplified_contigs</text>
</g>
<!-- denovo_assemblydatatrimmed_fastqspades_outputK21&#45;&gt;denovo_assemblydatatrimmed_fastqspades_outputK21simplified_contigs -->
<g id="edge25" class="edge">
<title>denovo_assemblydatatrimmed_fastqspades_outputK21&#45;&gt;denovo_assemblydatatrimmed_fastqspades_outputK21simplified_contigs</title>
<path fill="none" stroke="black" d="M571.52,-71.7C565.48,-63.56 558.14,-53.69 551.47,-44.7"/>
<polygon fill="black" stroke="black" points="553.85,-43.04 545.08,-37.1 548.23,-47.22 553.85,-43.04"/>
</g>
<!-- denovo_assemblydatatrimmed_fastqspades_outputK21configs -->
<g id="node27" class="node">
<title>denovo_assemblydatatrimmed_fastqspades_outputK21configs</title>
<polygon fill="lemonchiffon" stroke="black" stroke-width="2" points="665.25,-36 662.25,-40 641.25,-40 638.25,-36 609.5,-36 609.5,0 665.25,0 665.25,-36"/>
<text text-anchor="start" x="617.5" y="-12.95" font-family="Times,serif" font-size="14.00">configs</text>
</g>
<!-- denovo_assemblydatatrimmed_fastqspades_outputK21&#45;&gt;denovo_assemblydatatrimmed_fastqspades_outputK21configs -->
<g id="edge26" class="edge">
<title>denovo_assemblydatatrimmed_fastqspades_outputK21&#45;&gt;denovo_assemblydatatrimmed_fastqspades_outputK21configs</title>
<path fill="none" stroke="black" d="M597.48,-71.7C603.64,-63.56 611.11,-53.69 617.92,-44.7"/>
<polygon fill="black" stroke="black" points="621.18,-47.19 624.42,-37.1 615.6,-42.96 621.18,-47.19"/>
</g>
<!-- denovo_assemblydatatrimmed_fastqspades_outputK99simplified_contigs -->
<g id="node28" class="node">
<title>denovo_assemblydatatrimmed_fastqspades_outputK99simplified_contigs</title>
<polygon fill="lemonchiffon" stroke="black" stroke-width="2" points="801,-36 798,-40 777,-40 774,-36 683.75,-36 683.75,0 801,0 801,-36"/>
<text text-anchor="start" x="691.75" y="-12.95" font-family="Times,serif" font-size="14.00">simplified_contigs</text>
</g>
<!-- denovo_assemblydatatrimmed_fastqspades_outputK99&#45;&gt;denovo_assemblydatatrimmed_fastqspades_outputK99simplified_contigs -->
<g id="edge27" class="edge">
<title>denovo_assemblydatatrimmed_fastqspades_outputK99&#45;&gt;denovo_assemblydatatrimmed_fastqspades_outputK99simplified_contigs</title>
<path fill="none" stroke="black" d="M742.38,-71.7C742.38,-64.24 742.38,-55.32 742.38,-46.97"/>
<polygon fill="black" stroke="black" points="745.88,-47.1 742.38,-37.1 738.88,-47.1 745.88,-47.1"/>
</g>
<!-- denovo_assemblydatatrimmed_fastqspades_outputK99configs -->
<g id="node29" class="node">
<title>denovo_assemblydatatrimmed_fastqspades_outputK99configs</title>
<polygon fill="lemonchiffon" stroke="black" stroke-width="2" points="875.25,-36 872.25,-40 851.25,-40 848.25,-36 819.5,-36 819.5,0 875.25,0 875.25,-36"/>
<text text-anchor="start" x="827.5" y="-12.95" font-family="Times,serif" font-size="14.00">configs</text>
</g>
<!-- denovo_assemblydatatrimmed_fastqspades_outputK99&#45;&gt;denovo_assemblydatatrimmed_fastqspades_outputK99configs -->
<g id="edge28" class="edge">
<title>denovo_assemblydatatrimmed_fastqspades_outputK99&#45;&gt;denovo_assemblydatatrimmed_fastqspades_outputK99configs</title>
<path fill="none" stroke="black" d="M768.6,-71.52C781.85,-62.68 798.12,-51.84 812.42,-42.3"/>
<polygon fill="black" stroke="black" points="814.11,-44.72 820.48,-36.26 810.22,-38.9 814.11,-44.72"/>
</g>
<!-- denovo_assemblydatatrimmed_fastqspades_outputK55simplified_contigs -->
<g id="node30" class="node">
<title>denovo_assemblydatatrimmed_fastqspades_outputK55simplified_contigs</title>
<polygon fill="lemonchiffon" stroke="black" stroke-width="2" points="1011,-36 1008,-40 987,-40 984,-36 893.75,-36 893.75,0 1011,0 1011,-36"/>
<text text-anchor="start" x="901.75" y="-12.95" font-family="Times,serif" font-size="14.00">simplified_contigs</text>
</g>
<!-- denovo_assemblydatatrimmed_fastqspades_outputK55&#45;&gt;denovo_assemblydatatrimmed_fastqspades_outputK55simplified_contigs -->
<g id="edge29" class="edge">
<title>denovo_assemblydatatrimmed_fastqspades_outputK55&#45;&gt;denovo_assemblydatatrimmed_fastqspades_outputK55simplified_contigs</title>
<path fill="none" stroke="black" d="M952.38,-71.7C952.38,-64.24 952.38,-55.32 952.38,-46.97"/>
<polygon fill="black" stroke="black" points="955.88,-47.1 952.38,-37.1 948.88,-47.1 955.88,-47.1"/>
</g>
<!-- denovo_assemblydatatrimmed_fastqspades_outputK55configs -->
<g id="node31" class="node">
<title>denovo_assemblydatatrimmed_fastqspades_outputK55configs</title>
<polygon fill="lemonchiffon" stroke="black" stroke-width="2" points="1085.25,-36 1082.25,-40 1061.25,-40 1058.25,-36 1029.5,-36 1029.5,0 1085.25,0 1085.25,-36"/>
<text text-anchor="start" x="1037.5" y="-12.95" font-family="Times,serif" font-size="14.00">configs</text>
</g>
<!-- denovo_assemblydatatrimmed_fastqspades_outputK55&#45;&gt;denovo_assemblydatatrimmed_fastqspades_outputK55configs -->
<g id="edge30" class="edge">
<title>denovo_assemblydatatrimmed_fastqspades_outputK55&#45;&gt;denovo_assemblydatatrimmed_fastqspades_outputK55configs</title>
<path fill="none" stroke="black" d="M978.6,-71.52C991.85,-62.68 1008.12,-51.84 1022.42,-42.3"/>
<polygon fill="black" stroke="black" points="1024.11,-44.72 1030.48,-36.26 1020.22,-38.9 1024.11,-44.72"/>
</g>
<!-- denovo_assemblydatatrimmed_fastqspades_outputK77simplified_contigs -->
<g id="node32" class="node">
<title>denovo_assemblydatatrimmed_fastqspades_outputK77simplified_contigs</title>
<polygon fill="lemonchiffon" stroke="black" stroke-width="2" points="1221,-36 1218,-40 1197,-40 1194,-36 1103.75,-36 1103.75,0 1221,0 1221,-36"/>
<text text-anchor="start" x="1111.75" y="-12.95" font-family="Times,serif" font-size="14.00">simplified_contigs</text>
</g>
<!-- denovo_assemblydatatrimmed_fastqspades_outputK77&#45;&gt;denovo_assemblydatatrimmed_fastqspades_outputK77simplified_contigs -->
<g id="edge31" class="edge">
<title>denovo_assemblydatatrimmed_fastqspades_outputK77&#45;&gt;denovo_assemblydatatrimmed_fastqspades_outputK77simplified_contigs</title>
<path fill="none" stroke="black" d="M1110.43,-71.7C1118.7,-63.3 1128.79,-53.07 1137.87,-43.86"/>
<polygon fill="black" stroke="black" points="1139.99,-46.68 1144.52,-37.1 1135,-41.77 1139.99,-46.68"/>
</g>
<!-- denovo_assemblydatatrimmed_fastqspades_outputK77configs -->
<g id="node33" class="node">
<title>denovo_assemblydatatrimmed_fastqspades_outputK77configs</title>
<polygon fill="lemonchiffon" stroke="black" stroke-width="2" points="1295.25,-36 1292.25,-40 1271.25,-40 1268.25,-36 1239.5,-36 1239.5,0 1295.25,0 1295.25,-36"/>
<text text-anchor="start" x="1247.5" y="-12.95" font-family="Times,serif" font-size="14.00">configs</text>
</g>
<!-- denovo_assemblydatatrimmed_fastqspades_outputK77&#45;&gt;denovo_assemblydatatrimmed_fastqspades_outputK77configs -->
<g id="edge32" class="edge">
<title>denovo_assemblydatatrimmed_fastqspades_outputK77&#45;&gt;denovo_assemblydatatrimmed_fastqspades_outputK77configs</title>
<path fill="none" stroke="black" d="M1120.66,-76.12C1125.68,-73.74 1129.38,-72 1129.38,-72 1129.38,-72 1201.28,-46.37 1229.13,-35.89"/>
<polygon fill="black" stroke="black" points="1230.3,-38.8 1238.33,-31.88 1227.74,-32.28 1230.3,-38.8"/>
</g>
</g>
</svg>
